<mxfile host="app.diagrams.net" modified="2021-02-05T12:03:03.971Z" agent="5.0 (Macintosh; Intel Mac OS X 11_2_0) AppleWebKit/537.36 (KHTML, like Gecko) Chrome/88.0.4324.146 Safari/537.36" etag="CnkoGnIg63y90Dc4Tqz9" version="14.2.9" type="github" pages="3">
  <diagram name="Page-1" id="74e2e168-ea6b-b213-b513-2b3c1d86103e">
    <mxGraphModel dx="897" dy="621" grid="1" gridSize="10" guides="1" tooltips="1" connect="1" arrows="1" fold="1" page="1" pageScale="1" pageWidth="1100" pageHeight="850" background="#ffffff" math="0" shadow="0">
      <root>
        <mxCell id="0" />
        <mxCell id="1" parent="0" />
        <mxCell id="77e6c97f196da883-1" value="Pool" style="swimlane;html=1;childLayout=stackLayout;startSize=20;rounded=0;shadow=0;labelBackgroundColor=none;strokeWidth=1;fontFamily=Verdana;fontSize=8;align=center;" parent="1" vertex="1">
          <mxGeometry x="70" y="120" width="960" height="750" as="geometry" />
        </mxCell>
        <mxCell id="77e6c97f196da883-2" value="用户" style="swimlane;html=1;startSize=20;" parent="77e6c97f196da883-1" vertex="1">
          <mxGeometry y="20" width="160" height="730" as="geometry" />
        </mxCell>
        <mxCell id="77e6c97f196da883-8" value="录入" style="rounded=1;whiteSpace=wrap;html=1;shadow=0;labelBackgroundColor=none;strokeWidth=1;fontFamily=Verdana;fontSize=8;align=center;" parent="77e6c97f196da883-2" vertex="1">
          <mxGeometry x="20" y="65" width="100" height="60" as="geometry" />
        </mxCell>
        <mxCell id="ouL7xCyoLX6YHPkjMQPY-2" value="&lt;span style=&quot;color: rgb(0 , 0 , 0) ; font-family: &amp;#34;helvetica&amp;#34; ; font-size: 12px ; font-style: normal ; font-weight: 700 ; letter-spacing: normal ; text-align: center ; text-indent: 0px ; text-transform: none ; word-spacing: 0px ; background-color: rgb(248 , 249 , 250) ; display: inline ; float: none&quot;&gt;节省差额排序&lt;/span&gt;" style="text;whiteSpace=wrap;html=1;" parent="77e6c97f196da883-2" vertex="1">
          <mxGeometry x="-60" y="170" width="90" height="30" as="geometry" />
        </mxCell>
        <mxCell id="ouL7xCyoLX6YHPkjMQPY-3" value="&lt;span style=&quot;color: rgb(0 , 0 , 0) ; font-family: &amp;#34;helvetica&amp;#34; ; font-size: 12px ; font-style: normal ; font-weight: 700 ; letter-spacing: normal ; text-align: center ; text-indent: 0px ; text-transform: none ; word-spacing: 0px ; background-color: rgb(248 , 249 , 250) ; display: inline ; float: none&quot;&gt;判定剩余购餐满足该排序项的数量&lt;/span&gt;" style="text;whiteSpace=wrap;html=1;" parent="77e6c97f196da883-2" vertex="1">
          <mxGeometry x="-60" y="260" width="110" height="30" as="geometry" />
        </mxCell>
        <mxCell id="77e6c97f196da883-39" style="edgeStyle=orthogonalEdgeStyle;rounded=1;html=1;labelBackgroundColor=none;startArrow=none;startFill=0;startSize=5;endArrow=classicThin;endFill=1;endSize=5;jettySize=auto;orthogonalLoop=1;strokeWidth=1;fontFamily=Verdana;fontSize=8" parent="77e6c97f196da883-1" source="77e6c97f196da883-20" edge="1">
          <mxGeometry relative="1" as="geometry">
            <mxPoint x="670" y="690" as="targetPoint" />
          </mxGeometry>
        </mxCell>
        <mxCell id="77e6c97f196da883-40" style="edgeStyle=orthogonalEdgeStyle;rounded=1;html=1;labelBackgroundColor=none;startArrow=none;startFill=0;startSize=5;endArrow=classicThin;endFill=1;endSize=5;jettySize=auto;orthogonalLoop=1;strokeWidth=1;fontFamily=Verdana;fontSize=8" parent="77e6c97f196da883-1" target="77e6c97f196da883-24" edge="1">
          <mxGeometry relative="1" as="geometry">
            <mxPoint x="770" y="690" as="sourcePoint" />
          </mxGeometry>
        </mxCell>
        <mxCell id="107ba76e4e335f99-3" style="edgeStyle=orthogonalEdgeStyle;rounded=1;html=1;labelBackgroundColor=none;startArrow=none;startFill=0;startSize=5;endArrow=classicThin;endFill=1;endSize=5;jettySize=auto;orthogonalLoop=1;strokeColor=#000000;strokeWidth=1;fontFamily=Verdana;fontSize=8;fontColor=#000000;" parent="77e6c97f196da883-1" target="77e6c97f196da883-19" edge="1">
          <mxGeometry relative="1" as="geometry">
            <mxPoint x="670" y="610" as="sourcePoint" />
          </mxGeometry>
        </mxCell>
        <mxCell id="107ba76e4e335f99-6" style="edgeStyle=orthogonalEdgeStyle;rounded=1;html=1;labelBackgroundColor=none;startArrow=none;startFill=0;startSize=5;endArrow=classicThin;endFill=1;endSize=5;jettySize=auto;orthogonalLoop=1;strokeWidth=1;fontFamily=Verdana;fontSize=8" parent="77e6c97f196da883-1" target="77e6c97f196da883-19" edge="1">
          <mxGeometry relative="1" as="geometry">
            <mxPoint x="450" y="610" as="sourcePoint" />
          </mxGeometry>
        </mxCell>
        <mxCell id="77e6c97f196da883-3" value="计算购买数方案系统" style="swimlane;html=1;startSize=20;" parent="77e6c97f196da883-1" vertex="1">
          <mxGeometry x="160" y="20" width="160" height="730" as="geometry" />
        </mxCell>
        <mxCell id="77e6c97f196da883-9" value="排序" style="rounded=1;whiteSpace=wrap;html=1;shadow=0;labelBackgroundColor=none;strokeWidth=1;fontFamily=Verdana;fontSize=8;align=center;" parent="77e6c97f196da883-3" vertex="1">
          <mxGeometry x="30" y="155" width="100" height="60" as="geometry" />
        </mxCell>
        <mxCell id="ouL7xCyoLX6YHPkjMQPY-8" value="是否有相同排序其他项" style="rhombus;whiteSpace=wrap;html=1;rounded=0;shadow=0;labelBackgroundColor=none;strokeWidth=1;fontFamily=Verdana;fontSize=8;align=center;" parent="77e6c97f196da883-3" vertex="1">
          <mxGeometry x="60" y="550" width="80" height="60" as="geometry" />
        </mxCell>
        <mxCell id="77e6c97f196da883-4" value="判定系统" style="swimlane;html=1;startSize=20;" parent="77e6c97f196da883-1" vertex="1">
          <mxGeometry x="320" y="20" width="160" height="730" as="geometry" />
        </mxCell>
        <mxCell id="ouL7xCyoLX6YHPkjMQPY-9" value="判定" style="rounded=1;whiteSpace=wrap;html=1;shadow=0;labelBackgroundColor=none;strokeWidth=1;fontFamily=Verdana;fontSize=8;align=center;" parent="77e6c97f196da883-4" vertex="1">
          <mxGeometry x="30" y="250" width="100" height="60" as="geometry" />
        </mxCell>
        <mxCell id="ouL7xCyoLX6YHPkjMQPY-12" value="是否有相同排序其他项" style="rhombus;whiteSpace=wrap;html=1;rounded=0;shadow=0;labelBackgroundColor=none;strokeWidth=1;fontFamily=Verdana;fontSize=8;align=center;" parent="77e6c97f196da883-4" vertex="1">
          <mxGeometry x="30" y="350" width="100" height="60" as="geometry" />
        </mxCell>
        <mxCell id="ouL7xCyoLX6YHPkjMQPY-16" value="" style="endArrow=classic;html=1;entryX=0.5;entryY=0;entryDx=0;entryDy=0;" parent="77e6c97f196da883-4" source="ouL7xCyoLX6YHPkjMQPY-9" target="ouL7xCyoLX6YHPkjMQPY-12" edge="1">
          <mxGeometry width="50" height="50" relative="1" as="geometry">
            <mxPoint x="-80" y="270" as="sourcePoint" />
            <mxPoint x="-30" y="220" as="targetPoint" />
          </mxGeometry>
        </mxCell>
        <mxCell id="77e6c97f196da883-15" value="找出相同排序" style="rounded=1;whiteSpace=wrap;html=1;shadow=0;labelBackgroundColor=none;strokeWidth=1;fontFamily=Verdana;fontSize=8;align=center;" parent="77e6c97f196da883-4" vertex="1">
          <mxGeometry x="30" y="450" width="100" height="60" as="geometry" />
        </mxCell>
        <mxCell id="77e6c97f196da883-5" value="相同排序判定系统" style="swimlane;html=1;startSize=20;" parent="77e6c97f196da883-1" vertex="1">
          <mxGeometry x="480" y="20" width="160" height="730" as="geometry" />
        </mxCell>
        <mxCell id="77e6c97f196da883-19" value="" style="rounded=1;whiteSpace=wrap;html=1;shadow=0;labelBackgroundColor=none;strokeWidth=1;fontFamily=Verdana;fontSize=8;align=center;" parent="77e6c97f196da883-5" vertex="1">
          <mxGeometry x="30" y="560" width="100" height="60" as="geometry" />
        </mxCell>
        <mxCell id="77e6c97f196da883-20" value="" style="rhombus;whiteSpace=wrap;html=1;rounded=0;shadow=0;labelBackgroundColor=none;strokeWidth=1;fontFamily=Verdana;fontSize=8;align=center;" parent="77e6c97f196da883-5" vertex="1">
          <mxGeometry x="40" y="640" width="80" height="60" as="geometry" />
        </mxCell>
        <mxCell id="77e6c97f196da883-36" style="edgeStyle=orthogonalEdgeStyle;rounded=1;html=1;labelBackgroundColor=none;startArrow=none;startFill=0;startSize=5;endArrow=classicThin;endFill=1;endSize=5;jettySize=auto;orthogonalLoop=1;strokeWidth=1;fontFamily=Verdana;fontSize=8" parent="77e6c97f196da883-5" source="77e6c97f196da883-19" target="77e6c97f196da883-20" edge="1">
          <mxGeometry relative="1" as="geometry" />
        </mxCell>
        <mxCell id="ouL7xCyoLX6YHPkjMQPY-18" value="否" style="text;html=1;resizable=0;autosize=1;align=center;verticalAlign=middle;points=[];fillColor=none;strokeColor=none;rounded=0;" parent="77e6c97f196da883-5" vertex="1">
          <mxGeometry x="70" y="360" width="30" height="20" as="geometry" />
        </mxCell>
        <mxCell id="77e6c97f196da883-7" value="Lane 6" style="swimlane;html=1;startSize=20;" parent="77e6c97f196da883-1" vertex="1">
          <mxGeometry x="640" y="20" width="160" height="730" as="geometry" />
        </mxCell>
        <mxCell id="77e6c97f196da883-24" value="" style="rounded=1;whiteSpace=wrap;html=1;shadow=0;labelBackgroundColor=none;strokeWidth=1;fontFamily=Verdana;fontSize=8;align=center;" parent="77e6c97f196da883-7" vertex="1">
          <mxGeometry x="30" y="640" width="100" height="60" as="geometry" />
        </mxCell>
        <mxCell id="ouL7xCyoLX6YHPkjMQPY-20" value="记录数量" style="rounded=1;whiteSpace=wrap;html=1;shadow=0;labelBackgroundColor=none;strokeWidth=1;fontFamily=Verdana;fontSize=8;align=center;" parent="77e6c97f196da883-7" vertex="1">
          <mxGeometry x="30" y="450" width="100" height="60" as="geometry" />
        </mxCell>
        <mxCell id="ouL7xCyoLX6YHPkjMQPY-13" value="" style="endArrow=classic;html=1;entryX=0.5;entryY=0;entryDx=0;entryDy=0;exitX=1.02;exitY=0.4;exitDx=0;exitDy=0;exitPerimeter=0;" parent="77e6c97f196da883-1" source="77e6c97f196da883-9" target="ouL7xCyoLX6YHPkjMQPY-9" edge="1">
          <mxGeometry width="50" height="50" relative="1" as="geometry">
            <mxPoint x="240" y="480" as="sourcePoint" />
            <mxPoint x="290" y="430" as="targetPoint" />
            <Array as="points">
              <mxPoint x="400" y="199" />
            </Array>
          </mxGeometry>
        </mxCell>
        <mxCell id="ouL7xCyoLX6YHPkjMQPY-15" value="" style="endArrow=classic;html=1;entryX=0.5;entryY=0;entryDx=0;entryDy=0;exitX=1;exitY=0.4;exitDx=0;exitDy=0;exitPerimeter=0;" parent="77e6c97f196da883-1" source="77e6c97f196da883-8" target="77e6c97f196da883-9" edge="1">
          <mxGeometry width="50" height="50" relative="1" as="geometry">
            <mxPoint x="240" y="290" as="sourcePoint" />
            <mxPoint x="290" y="240" as="targetPoint" />
            <Array as="points">
              <mxPoint x="240" y="109" />
            </Array>
          </mxGeometry>
        </mxCell>
        <mxCell id="ouL7xCyoLX6YHPkjMQPY-17" value="" style="endArrow=classic;html=1;entryX=0.5;entryY=0;entryDx=0;entryDy=0;exitX=1;exitY=0.5;exitDx=0;exitDy=0;" parent="77e6c97f196da883-1" source="ouL7xCyoLX6YHPkjMQPY-12" target="ouL7xCyoLX6YHPkjMQPY-20" edge="1">
          <mxGeometry width="50" height="50" relative="1" as="geometry">
            <mxPoint x="240" y="400" as="sourcePoint" />
            <mxPoint x="290" y="350" as="targetPoint" />
            <Array as="points">
              <mxPoint x="720" y="400" />
            </Array>
          </mxGeometry>
        </mxCell>
        <mxCell id="ouL7xCyoLX6YHPkjMQPY-1" value="&lt;div style=&quot;text-align: center&quot;&gt;&lt;span&gt;&lt;font face=&quot;helvetica&quot;&gt;&lt;b&gt;录入购餐方案&lt;/b&gt;&lt;/font&gt;&lt;/span&gt;&lt;/div&gt;" style="text;whiteSpace=wrap;html=1;rotation=0;" parent="1" vertex="1">
          <mxGeometry x="10" y="140" width="100" height="30" as="geometry" />
        </mxCell>
        <mxCell id="ouL7xCyoLX6YHPkjMQPY-11" value="&lt;span style=&quot;color: rgb(0 , 0 , 0) ; font-family: &amp;#34;helvetica&amp;#34; ; font-size: 12px ; font-style: normal ; font-weight: 700 ; letter-spacing: normal ; text-align: center ; text-indent: 0px ; text-transform: none ; word-spacing: 0px ; background-color: rgb(248 , 249 , 250) ; display: inline ; float: none&quot;&gt;录入该套餐数量&lt;/span&gt;" style="text;whiteSpace=wrap;html=1;" parent="1" vertex="1">
          <mxGeometry x="15" y="410" width="90" height="30" as="geometry" />
        </mxCell>
      </root>
    </mxGraphModel>
  </diagram>
  <diagram id="Jp_0Dv9s4Y3nVIQZ1F1w" name="管理员操作流程">
    <mxGraphModel dx="897" dy="564" grid="1" gridSize="10" guides="1" tooltips="1" connect="1" arrows="1" fold="1" page="1" pageScale="1" pageWidth="827" pageHeight="1169" math="0" shadow="0">
      <root>
        <mxCell id="syh2b1wknD5gntk_Asfk-0" />
        <mxCell id="syh2b1wknD5gntk_Asfk-1" parent="syh2b1wknD5gntk_Asfk-0" />
        <mxCell id="e2fdtUEJg0z5a7h14m2f-0" value="管理员操作流程" style="swimlane;html=1;childLayout=stackLayout;startSize=20;rounded=0;shadow=0;labelBackgroundColor=none;strokeWidth=1;fontFamily=Verdana;fontSize=8;align=center;" vertex="1" parent="syh2b1wknD5gntk_Asfk-1">
          <mxGeometry x="310" y="130" width="640" height="510" as="geometry" />
        </mxCell>
        <mxCell id="e2fdtUEJg0z5a7h14m2f-1" value="管理员" style="swimlane;html=1;startSize=20;" vertex="1" parent="e2fdtUEJg0z5a7h14m2f-0">
          <mxGeometry y="20" width="160" height="490" as="geometry" />
        </mxCell>
        <mxCell id="e2fdtUEJg0z5a7h14m2f-2" value="开始" style="rounded=1;whiteSpace=wrap;html=1;shadow=0;labelBackgroundColor=none;strokeWidth=1;fontFamily=Verdana;fontSize=8;align=center;" vertex="1" parent="e2fdtUEJg0z5a7h14m2f-1">
          <mxGeometry x="30" y="60" width="100" height="60" as="geometry" />
        </mxCell>
        <mxCell id="e2fdtUEJg0z5a7h14m2f-35" value="开始" style="rounded=1;whiteSpace=wrap;html=1;shadow=0;labelBackgroundColor=none;strokeWidth=1;fontFamily=Verdana;fontSize=8;align=center;" vertex="1" parent="e2fdtUEJg0z5a7h14m2f-1">
          <mxGeometry x="30" y="310" width="100" height="60" as="geometry" />
        </mxCell>
        <mxCell id="e2fdtUEJg0z5a7h14m2f-9" value="信息录入功能" style="swimlane;html=1;startSize=20;" vertex="1" parent="e2fdtUEJg0z5a7h14m2f-0">
          <mxGeometry x="160" y="20" width="160" height="490" as="geometry" />
        </mxCell>
        <mxCell id="e2fdtUEJg0z5a7h14m2f-10" value="录入套餐图片/价钱/名称/菜品组合" style="rounded=1;whiteSpace=wrap;html=1;shadow=0;labelBackgroundColor=none;strokeWidth=1;fontFamily=Verdana;fontSize=8;align=center;" vertex="1" parent="e2fdtUEJg0z5a7h14m2f-9">
          <mxGeometry x="30" y="312" width="100" height="60" as="geometry" />
        </mxCell>
        <mxCell id="e2fdtUEJg0z5a7h14m2f-32" value="录入菜品图片/价钱/名称" style="rounded=1;whiteSpace=wrap;html=1;shadow=0;labelBackgroundColor=none;strokeWidth=1;fontFamily=Verdana;fontSize=8;align=center;" vertex="1" parent="e2fdtUEJg0z5a7h14m2f-9">
          <mxGeometry x="30" y="60" width="100" height="60" as="geometry" />
        </mxCell>
        <mxCell id="e2fdtUEJg0z5a7h14m2f-12" value="优惠额排序功能" style="swimlane;html=1;startSize=20;" vertex="1" parent="e2fdtUEJg0z5a7h14m2f-0">
          <mxGeometry x="320" y="20" width="160" height="490" as="geometry" />
        </mxCell>
        <mxCell id="e2fdtUEJg0z5a7h14m2f-36" value="由大到小排序" style="rounded=1;whiteSpace=wrap;html=1;shadow=0;labelBackgroundColor=none;strokeWidth=1;fontFamily=Verdana;fontSize=8;align=center;" vertex="1" parent="e2fdtUEJg0z5a7h14m2f-12">
          <mxGeometry x="30" y="312" width="100" height="60" as="geometry" />
        </mxCell>
        <mxCell id="e2fdtUEJg0z5a7h14m2f-17" value="存储功能" style="swimlane;html=1;startSize=20;" vertex="1" parent="e2fdtUEJg0z5a7h14m2f-0">
          <mxGeometry x="480" y="20" width="160" height="490" as="geometry" />
        </mxCell>
        <mxCell id="e2fdtUEJg0z5a7h14m2f-31" value="存储" style="rounded=1;whiteSpace=wrap;html=1;shadow=0;labelBackgroundColor=none;strokeWidth=1;fontFamily=Verdana;fontSize=8;align=center;" vertex="1" parent="e2fdtUEJg0z5a7h14m2f-17">
          <mxGeometry x="30" y="60" width="100" height="60" as="geometry" />
        </mxCell>
        <mxCell id="e2fdtUEJg0z5a7h14m2f-43" value="存储" style="rounded=1;whiteSpace=wrap;html=1;shadow=0;labelBackgroundColor=none;strokeWidth=1;fontFamily=Verdana;fontSize=8;align=center;" vertex="1" parent="e2fdtUEJg0z5a7h14m2f-17">
          <mxGeometry x="30" y="312" width="100" height="60" as="geometry" />
        </mxCell>
        <mxCell id="15U03J2cJ9C9nPjsJcDL-4" value="结束" style="rounded=1;whiteSpace=wrap;html=1;shadow=0;labelBackgroundColor=none;strokeWidth=1;fontFamily=Verdana;fontSize=8;align=center;" vertex="1" parent="e2fdtUEJg0z5a7h14m2f-17">
          <mxGeometry x="30" y="150" width="100" height="60" as="geometry" />
        </mxCell>
        <mxCell id="15U03J2cJ9C9nPjsJcDL-5" value="" style="endArrow=classic;html=1;exitX=0.5;exitY=1;exitDx=0;exitDy=0;" edge="1" parent="e2fdtUEJg0z5a7h14m2f-17" source="e2fdtUEJg0z5a7h14m2f-31" target="15U03J2cJ9C9nPjsJcDL-4">
          <mxGeometry width="50" height="50" relative="1" as="geometry">
            <mxPoint x="-20" y="352" as="sourcePoint" />
            <mxPoint x="40" y="352" as="targetPoint" />
          </mxGeometry>
        </mxCell>
        <mxCell id="15U03J2cJ9C9nPjsJcDL-6" value="结束" style="rounded=1;whiteSpace=wrap;html=1;shadow=0;labelBackgroundColor=none;strokeWidth=1;fontFamily=Verdana;fontSize=8;align=center;" vertex="1" parent="e2fdtUEJg0z5a7h14m2f-17">
          <mxGeometry x="30" y="405" width="100" height="60" as="geometry" />
        </mxCell>
        <mxCell id="15U03J2cJ9C9nPjsJcDL-7" value="" style="endArrow=classic;html=1;" edge="1" parent="e2fdtUEJg0z5a7h14m2f-17" source="e2fdtUEJg0z5a7h14m2f-43" target="15U03J2cJ9C9nPjsJcDL-6">
          <mxGeometry width="50" height="50" relative="1" as="geometry">
            <mxPoint x="90" y="130" as="sourcePoint" />
            <mxPoint x="90" y="160" as="targetPoint" />
          </mxGeometry>
        </mxCell>
        <mxCell id="e2fdtUEJg0z5a7h14m2f-33" value="" style="endArrow=classic;html=1;exitX=1;exitY=0.5;exitDx=0;exitDy=0;" edge="1" parent="e2fdtUEJg0z5a7h14m2f-0" source="e2fdtUEJg0z5a7h14m2f-2" target="e2fdtUEJg0z5a7h14m2f-32">
          <mxGeometry width="50" height="50" relative="1" as="geometry">
            <mxPoint x="290" y="280" as="sourcePoint" />
            <mxPoint x="340" y="230" as="targetPoint" />
          </mxGeometry>
        </mxCell>
        <mxCell id="e2fdtUEJg0z5a7h14m2f-34" value="" style="endArrow=classic;html=1;exitX=1;exitY=0.5;exitDx=0;exitDy=0;" edge="1" parent="e2fdtUEJg0z5a7h14m2f-0" source="e2fdtUEJg0z5a7h14m2f-32" target="e2fdtUEJg0z5a7h14m2f-31">
          <mxGeometry width="50" height="50" relative="1" as="geometry">
            <mxPoint x="140" y="120" as="sourcePoint" />
            <mxPoint x="200" y="120" as="targetPoint" />
          </mxGeometry>
        </mxCell>
        <mxCell id="e2fdtUEJg0z5a7h14m2f-44" value="" style="endArrow=classic;html=1;exitX=1;exitY=0.5;exitDx=0;exitDy=0;" edge="1" parent="e2fdtUEJg0z5a7h14m2f-0" source="e2fdtUEJg0z5a7h14m2f-35" target="e2fdtUEJg0z5a7h14m2f-10">
          <mxGeometry width="50" height="50" relative="1" as="geometry">
            <mxPoint x="130" y="212" as="sourcePoint" />
            <mxPoint x="200" y="360" as="targetPoint" />
          </mxGeometry>
        </mxCell>
        <mxCell id="e2fdtUEJg0z5a7h14m2f-47" value="" style="endArrow=classic;html=1;exitX=1;exitY=0.5;exitDx=0;exitDy=0;" edge="1" parent="e2fdtUEJg0z5a7h14m2f-0" source="e2fdtUEJg0z5a7h14m2f-36" target="e2fdtUEJg0z5a7h14m2f-43">
          <mxGeometry width="50" height="50" relative="1" as="geometry">
            <mxPoint x="300" y="222" as="sourcePoint" />
            <mxPoint x="360" y="222" as="targetPoint" />
          </mxGeometry>
        </mxCell>
        <mxCell id="15U03J2cJ9C9nPjsJcDL-3" value="" style="endArrow=classic;html=1;exitX=1;exitY=0.5;exitDx=0;exitDy=0;entryX=0;entryY=0.5;entryDx=0;entryDy=0;" edge="1" parent="e2fdtUEJg0z5a7h14m2f-0" source="e2fdtUEJg0z5a7h14m2f-10" target="e2fdtUEJg0z5a7h14m2f-36">
          <mxGeometry width="50" height="50" relative="1" as="geometry">
            <mxPoint x="460" y="372" as="sourcePoint" />
            <mxPoint x="520" y="372" as="targetPoint" />
          </mxGeometry>
        </mxCell>
        <mxCell id="e2fdtUEJg0z5a7h14m2f-28" value="&lt;div style=&quot;text-align: center&quot;&gt;&lt;span&gt;&lt;font face=&quot;helvetica&quot;&gt;&lt;b&gt;录入菜品信息&lt;/b&gt;&lt;/font&gt;&lt;/span&gt;&lt;/div&gt;" style="text;whiteSpace=wrap;html=1;rotation=0;" vertex="1" parent="syh2b1wknD5gntk_Asfk-1">
          <mxGeometry x="220" y="220" width="80" height="30" as="geometry" />
        </mxCell>
        <mxCell id="e2fdtUEJg0z5a7h14m2f-3" value="&lt;span style=&quot;color: rgb(0 , 0 , 0) ; font-family: &amp;#34;helvetica&amp;#34; ; font-size: 12px ; font-style: normal ; font-weight: 700 ; letter-spacing: normal ; text-align: center ; text-indent: 0px ; text-transform: none ; word-spacing: 0px ; background-color: rgb(248 , 249 , 250) ; display: inline ; float: none&quot;&gt;录入套餐信息&lt;/span&gt;" style="text;whiteSpace=wrap;html=1;" vertex="1" parent="syh2b1wknD5gntk_Asfk-1">
          <mxGeometry x="220" y="470" width="80" height="30" as="geometry" />
        </mxCell>
      </root>
    </mxGraphModel>
  </diagram>
  <diagram id="3OoflNLDqQ1d2uq57GBS" name="用户操作流程">
    <mxGraphModel dx="897" dy="621" grid="1" gridSize="10" guides="1" tooltips="1" connect="1" arrows="1" fold="1" page="1" pageScale="1" pageWidth="827" pageHeight="1169" math="0" shadow="0">
      <root>
        <mxCell id="B8GpLeSW9WDh-s2J5Bn4-0" />
        <mxCell id="B8GpLeSW9WDh-s2J5Bn4-1" parent="B8GpLeSW9WDh-s2J5Bn4-0" />
        <mxCell id="Scfp5zgoTW77vw0WsTQA-0" value="用户操作流程" style="swimlane;html=1;childLayout=stackLayout;startSize=20;rounded=0;shadow=0;labelBackgroundColor=none;strokeWidth=1;fontFamily=Verdana;fontSize=8;align=center;" parent="B8GpLeSW9WDh-s2J5Bn4-1" vertex="1">
          <mxGeometry x="310" y="130" width="1030" height="620" as="geometry" />
        </mxCell>
        <mxCell id="Scfp5zgoTW77vw0WsTQA-1" value="用户" style="swimlane;html=1;startSize=20;" parent="Scfp5zgoTW77vw0WsTQA-0" vertex="1">
          <mxGeometry y="20" width="160" height="600" as="geometry" />
        </mxCell>
        <mxCell id="Scfp5zgoTW77vw0WsTQA-2" value="开始" style="rounded=1;whiteSpace=wrap;html=1;shadow=0;labelBackgroundColor=none;strokeWidth=1;fontFamily=Verdana;fontSize=8;align=center;" parent="Scfp5zgoTW77vw0WsTQA-1" vertex="1">
          <mxGeometry x="30" y="60" width="100" height="60" as="geometry" />
        </mxCell>
        <mxCell id="Scfp5zgoTW77vw0WsTQA-4" value="提交选择功能" style="swimlane;html=1;startSize=20;" parent="Scfp5zgoTW77vw0WsTQA-0" vertex="1">
          <mxGeometry x="160" y="20" width="160" height="600" as="geometry" />
        </mxCell>
        <mxCell id="Scfp5zgoTW77vw0WsTQA-6" value="提交" style="rounded=1;whiteSpace=wrap;html=1;shadow=0;labelBackgroundColor=none;strokeWidth=1;fontFamily=Verdana;fontSize=8;align=center;" parent="Scfp5zgoTW77vw0WsTQA-4" vertex="1">
          <mxGeometry x="30" y="60" width="100" height="60" as="geometry" />
        </mxCell>
        <mxCell id="Scfp5zgoTW77vw0WsTQA-12" value="" style="endArrow=classic;html=1;exitX=1;exitY=0.5;exitDx=0;exitDy=0;" parent="Scfp5zgoTW77vw0WsTQA-0" source="Scfp5zgoTW77vw0WsTQA-2" target="Scfp5zgoTW77vw0WsTQA-6" edge="1">
          <mxGeometry width="50" height="50" relative="1" as="geometry">
            <mxPoint x="290" y="280" as="sourcePoint" />
            <mxPoint x="340" y="230" as="targetPoint" />
          </mxGeometry>
        </mxCell>
        <mxCell id="Scfp5zgoTW77vw0WsTQA-15" value="" style="endArrow=classic;html=1;exitX=1;exitY=0.5;exitDx=0;exitDy=0;entryX=0;entryY=0.5;entryDx=0;entryDy=0;" parent="Scfp5zgoTW77vw0WsTQA-0" source="Scfp5zgoTW77vw0WsTQA-6" target="mNoebpdp3pZ4CvMQ3teG-0" edge="1">
          <mxGeometry width="50" height="50" relative="1" as="geometry">
            <mxPoint x="140" y="222" as="sourcePoint" />
            <mxPoint x="200" y="222" as="targetPoint" />
          </mxGeometry>
        </mxCell>
        <mxCell id="Scfp5zgoTW77vw0WsTQA-7" value="待判定菜品判定功能" style="swimlane;html=1;startSize=20;" parent="Scfp5zgoTW77vw0WsTQA-0" vertex="1">
          <mxGeometry x="320" y="20" width="360" height="600" as="geometry" />
        </mxCell>
        <mxCell id="mNoebpdp3pZ4CvMQ3teG-0" value="待判定菜品满足该套餐的数量" style="rounded=1;whiteSpace=wrap;html=1;shadow=0;labelBackgroundColor=none;strokeWidth=1;fontFamily=Verdana;fontSize=8;align=center;" parent="Scfp5zgoTW77vw0WsTQA-7" vertex="1">
          <mxGeometry x="70" y="60" width="100" height="60" as="geometry" />
        </mxCell>
        <mxCell id="qTZFoO3pop353_HqjEWo-0" value="是否没有相同的排序项且相同排序当中数量最少" style="rhombus;whiteSpace=wrap;html=1;" parent="Scfp5zgoTW77vw0WsTQA-7" vertex="1">
          <mxGeometry x="52" y="290" width="135" height="60" as="geometry" />
        </mxCell>
        <mxCell id="qTZFoO3pop353_HqjEWo-5" value="" style="endArrow=classic;html=1;" parent="Scfp5zgoTW77vw0WsTQA-7" source="eHNqr2JOOd4bOIvWFbwj-0" target="qTZFoO3pop353_HqjEWo-0" edge="1">
          <mxGeometry width="50" height="50" relative="1" as="geometry">
            <mxPoint x="240" y="100" as="sourcePoint" />
            <mxPoint x="180" y="100" as="targetPoint" />
          </mxGeometry>
        </mxCell>
        <mxCell id="qTZFoO3pop353_HqjEWo-11" value="&lt;div style=&quot;text-align: center&quot;&gt;&lt;span&gt;&lt;font face=&quot;helvetica&quot;&gt;是&lt;/font&gt;&lt;/span&gt;&lt;/div&gt;" style="text;whiteSpace=wrap;html=1;rotation=0;" parent="Scfp5zgoTW77vw0WsTQA-7" vertex="1">
          <mxGeometry x="190" y="285" width="20" height="30" as="geometry" />
        </mxCell>
        <mxCell id="qTZFoO3pop353_HqjEWo-13" value="&lt;div style=&quot;text-align: center&quot;&gt;&lt;span&gt;&lt;font face=&quot;helvetica&quot;&gt;否&lt;/font&gt;&lt;/span&gt;&lt;/div&gt;" style="text;whiteSpace=wrap;html=1;rotation=0;" parent="Scfp5zgoTW77vw0WsTQA-7" vertex="1">
          <mxGeometry x="100" y="405" width="20" height="30" as="geometry" />
        </mxCell>
        <mxCell id="qTZFoO3pop353_HqjEWo-14" value="相同排序id的下一项作为判定使用" style="rounded=1;whiteSpace=wrap;html=1;shadow=0;labelBackgroundColor=none;strokeWidth=1;fontFamily=Verdana;fontSize=8;align=center;" parent="Scfp5zgoTW77vw0WsTQA-7" vertex="1">
          <mxGeometry x="70" y="460" width="100" height="60" as="geometry" />
        </mxCell>
        <mxCell id="qTZFoO3pop353_HqjEWo-15" value="" style="endArrow=classic;html=1;exitX=0.5;exitY=1;exitDx=0;exitDy=0;" parent="Scfp5zgoTW77vw0WsTQA-7" source="qTZFoO3pop353_HqjEWo-0" target="qTZFoO3pop353_HqjEWo-14" edge="1">
          <mxGeometry width="50" height="50" relative="1" as="geometry">
            <mxPoint x="122.39599383667178" y="394.9614791987674" as="sourcePoint" />
            <mxPoint x="130" y="170" as="targetPoint" />
          </mxGeometry>
        </mxCell>
        <mxCell id="eHNqr2JOOd4bOIvWFbwj-0" value="优惠额是否为正数" style="rhombus;whiteSpace=wrap;html=1;" parent="Scfp5zgoTW77vw0WsTQA-7" vertex="1">
          <mxGeometry x="55" y="150" width="130" height="60" as="geometry" />
        </mxCell>
        <mxCell id="eHNqr2JOOd4bOIvWFbwj-1" value="" style="endArrow=classic;html=1;" parent="Scfp5zgoTW77vw0WsTQA-7" source="mNoebpdp3pZ4CvMQ3teG-0" target="eHNqr2JOOd4bOIvWFbwj-0" edge="1">
          <mxGeometry width="50" height="50" relative="1" as="geometry">
            <mxPoint x="750" y="270" as="sourcePoint" />
            <mxPoint x="750" y="475" as="targetPoint" />
          </mxGeometry>
        </mxCell>
        <mxCell id="eHNqr2JOOd4bOIvWFbwj-2" value="&lt;div style=&quot;text-align: center&quot;&gt;&lt;span&gt;&lt;font face=&quot;helvetica&quot;&gt;否&lt;/font&gt;&lt;/span&gt;&lt;/div&gt;" style="text;whiteSpace=wrap;html=1;rotation=0;" parent="Scfp5zgoTW77vw0WsTQA-7" vertex="1">
          <mxGeometry x="190" y="150" width="20" height="30" as="geometry" />
        </mxCell>
        <mxCell id="eHNqr2JOOd4bOIvWFbwj-13" value="&lt;div style=&quot;text-align: center&quot;&gt;&lt;span&gt;&lt;font face=&quot;helvetica&quot;&gt;是&lt;/font&gt;&lt;/span&gt;&lt;/div&gt;" style="text;whiteSpace=wrap;html=1;rotation=0;" parent="Scfp5zgoTW77vw0WsTQA-7" vertex="1">
          <mxGeometry x="100" y="210" width="20" height="30" as="geometry" />
        </mxCell>
        <mxCell id="qTZFoO3pop353_HqjEWo-16" value="" style="endArrow=classic;html=1;exitX=0;exitY=0.5;exitDx=0;exitDy=0;entryX=0;entryY=0.5;entryDx=0;entryDy=0;" parent="Scfp5zgoTW77vw0WsTQA-7" source="qTZFoO3pop353_HqjEWo-14" edge="1" target="mNoebpdp3pZ4CvMQ3teG-0">
          <mxGeometry width="50" height="50" relative="1" as="geometry">
            <mxPoint x="120" y="550" as="sourcePoint" />
            <mxPoint x="80" y="90" as="targetPoint" />
            <Array as="points">
              <mxPoint x="20" y="490" />
              <mxPoint x="20" y="290" />
              <mxPoint x="20" y="90" />
            </Array>
          </mxGeometry>
        </mxCell>
        <mxCell id="m2Wue1pT_PDRNxj78GoX-2" value="从待判定菜品中剔除该套餐*数量" style="rounded=1;whiteSpace=wrap;html=1;shadow=0;labelBackgroundColor=none;strokeWidth=1;fontFamily=Verdana;fontSize=8;align=center;" vertex="1" parent="Scfp5zgoTW77vw0WsTQA-7">
          <mxGeometry x="240" y="290" width="100" height="60" as="geometry" />
        </mxCell>
        <mxCell id="qTZFoO3pop353_HqjEWo-7" value="" style="endArrow=classic;html=1;entryX=0;entryY=0.5;entryDx=0;entryDy=0;" parent="Scfp5zgoTW77vw0WsTQA-7" source="qTZFoO3pop353_HqjEWo-0" target="m2Wue1pT_PDRNxj78GoX-2" edge="1">
          <mxGeometry width="50" height="50" relative="1" as="geometry">
            <mxPoint x="340" y="410" as="sourcePoint" />
            <mxPoint x="40" y="100" as="targetPoint" />
            <Array as="points" />
          </mxGeometry>
        </mxCell>
        <mxCell id="Scfp5zgoTW77vw0WsTQA-9" value="存储功能" style="swimlane;html=1;startSize=20;" parent="Scfp5zgoTW77vw0WsTQA-0" vertex="1">
          <mxGeometry x="680" y="20" width="190" height="600" as="geometry" />
        </mxCell>
        <mxCell id="Scfp5zgoTW77vw0WsTQA-10" value="提取套餐信息" style="rounded=1;whiteSpace=wrap;html=1;shadow=0;labelBackgroundColor=none;strokeWidth=1;fontFamily=Verdana;fontSize=8;align=center;" parent="Scfp5zgoTW77vw0WsTQA-9" vertex="1">
          <mxGeometry x="30" y="60" width="100" height="60" as="geometry" />
        </mxCell>
        <mxCell id="qTZFoO3pop353_HqjEWo-4" value="&lt;div style=&quot;text-align: center&quot;&gt;&lt;span&gt;&lt;font face=&quot;helvetica&quot;&gt;否&lt;/font&gt;&lt;/span&gt;&lt;/div&gt;" style="text;whiteSpace=wrap;html=1;rotation=0;" parent="Scfp5zgoTW77vw0WsTQA-9" vertex="1">
          <mxGeometry x="40" y="240" width="20" height="30" as="geometry" />
        </mxCell>
        <mxCell id="nv6ISV2TCkGnpukUeGbR-0" value="套餐组合记录功能" style="swimlane;html=1;startSize=20;" parent="Scfp5zgoTW77vw0WsTQA-0" vertex="1">
          <mxGeometry x="870" y="20" width="160" height="600" as="geometry" />
        </mxCell>
        <mxCell id="nv6ISV2TCkGnpukUeGbR-1" value="结束" style="rounded=1;whiteSpace=wrap;html=1;shadow=0;labelBackgroundColor=none;strokeWidth=1;fontFamily=Verdana;fontSize=8;align=center;" parent="nv6ISV2TCkGnpukUeGbR-0" vertex="1">
          <mxGeometry x="30" y="496" width="100" height="60" as="geometry" />
        </mxCell>
        <mxCell id="qTZFoO3pop353_HqjEWo-1" value="增加该套餐*数量" style="rounded=1;whiteSpace=wrap;html=1;shadow=0;labelBackgroundColor=none;strokeWidth=1;fontFamily=Verdana;fontSize=8;align=center;" parent="nv6ISV2TCkGnpukUeGbR-0" vertex="1">
          <mxGeometry x="30" y="290" width="100" height="60" as="geometry" />
        </mxCell>
        <mxCell id="qTZFoO3pop353_HqjEWo-17" value="" style="endArrow=classic;html=1;" parent="nv6ISV2TCkGnpukUeGbR-0" source="qTZFoO3pop353_HqjEWo-1" target="nv6ISV2TCkGnpukUeGbR-1" edge="1">
          <mxGeometry width="50" height="50" relative="1" as="geometry">
            <mxPoint x="-120" y="100" as="sourcePoint" />
            <mxPoint x="-180" y="100" as="targetPoint" />
          </mxGeometry>
        </mxCell>
        <mxCell id="Scfp5zgoTW77vw0WsTQA-16" value="" style="endArrow=classic;html=1;exitX=0;exitY=0.5;exitDx=0;exitDy=0;entryX=1;entryY=0.5;entryDx=0;entryDy=0;" parent="Scfp5zgoTW77vw0WsTQA-0" source="Scfp5zgoTW77vw0WsTQA-10" target="mNoebpdp3pZ4CvMQ3teG-0" edge="1">
          <mxGeometry width="50" height="50" relative="1" as="geometry">
            <mxPoint x="300" y="222" as="sourcePoint" />
            <mxPoint x="360" y="222" as="targetPoint" />
          </mxGeometry>
        </mxCell>
        <mxCell id="eHNqr2JOOd4bOIvWFbwj-12" value="" style="endArrow=classic;html=1;exitX=1;exitY=0.5;exitDx=0;exitDy=0;" parent="Scfp5zgoTW77vw0WsTQA-0" source="eHNqr2JOOd4bOIvWFbwj-0" edge="1" target="nv6ISV2TCkGnpukUeGbR-1">
          <mxGeometry width="50" height="50" relative="1" as="geometry">
            <mxPoint x="610" y="305" as="sourcePoint" />
            <mxPoint x="630" y="540" as="targetPoint" />
            <Array as="points">
              <mxPoint x="850" y="200" />
              <mxPoint x="850" y="546" />
            </Array>
          </mxGeometry>
        </mxCell>
        <mxCell id="m2Wue1pT_PDRNxj78GoX-11" value="" style="endArrow=classic;html=1;exitX=1;exitY=0.5;exitDx=0;exitDy=0;" edge="1" parent="Scfp5zgoTW77vw0WsTQA-0" source="m2Wue1pT_PDRNxj78GoX-2" target="qTZFoO3pop353_HqjEWo-1">
          <mxGeometry width="50" height="50" relative="1" as="geometry">
            <mxPoint x="720" y="390" as="sourcePoint" />
            <mxPoint x="783" y="390" as="targetPoint" />
            <Array as="points" />
          </mxGeometry>
        </mxCell>
        <mxCell id="Scfp5zgoTW77vw0WsTQA-17" value="&lt;div style=&quot;text-align: center&quot;&gt;&lt;span&gt;&lt;font face=&quot;helvetica&quot;&gt;&lt;b&gt;选择菜品&lt;/b&gt;&lt;/font&gt;&lt;/span&gt;&lt;/div&gt;" style="text;whiteSpace=wrap;html=1;rotation=0;" parent="B8GpLeSW9WDh-s2J5Bn4-1" vertex="1">
          <mxGeometry x="250" y="220" width="60" height="30" as="geometry" />
        </mxCell>
        <mxCell id="m2Wue1pT_PDRNxj78GoX-0" value="当前排序id套餐" style="rounded=1;whiteSpace=wrap;html=1;shadow=0;labelBackgroundColor=none;strokeWidth=1;fontFamily=Verdana;fontSize=8;align=center;" vertex="1" parent="B8GpLeSW9WDh-s2J5Bn4-1">
          <mxGeometry x="950" y="780" width="100" height="60" as="geometry" />
        </mxCell>
      </root>
    </mxGraphModel>
  </diagram>
</mxfile>
